<svg xmlns="http://www.w3.org/2000/svg" xmlns:xlink="http://www.w3.org/1999/xlink" viewBox="10.5 10.5 127 127"><defs><filter filterUnits="userSpaceOnUse" id="Filter_0" x="-1px" y="-1px" width="150px" height="150px">    <feOffset in="SourceAlpha" dx="9.192" dy="9.192"></feOffset>    <feGaussianBlur result="blurOut" stdDeviation="4.472"></feGaussianBlur>    <feFlood flood-color="rgb(0, 0, 0)" result="floodOut"></feFlood>    <feComposite operator="atop" in="floodOut" in2="blurOut"></feComposite>    <feComponentTransfer><feFuncA type="linear" slope="0.3"></feFuncA></feComponentTransfer>    <feMerge>    <feMergeNode></feMergeNode>    <feMergeNode in="SourceGraphic"></feMergeNode>  </feMerge></filter><filter filterUnits="userSpaceOnUse" id="Filter_1" x="16px" y="17px" width="134px" height="134px">    <feOffset in="SourceAlpha" dx="9.192" dy="9.192"></feOffset>    <feGaussianBlur result="blurOut" stdDeviation="4.472"></feGaussianBlur>    <feFlood flood-color="rgb(0, 0, 0)" result="floodOut"></feFlood>    <feComposite operator="atop" in="floodOut" in2="blurOut"></feComposite>    <feComponentTransfer><feFuncA type="linear" slope="0.3"></feFuncA></feComponentTransfer>    <feMerge>    <feMergeNode></feMergeNode>    <feMergeNode in="SourceGraphic"></feMergeNode>  </feMerge></filter></defs><g filter="url(#Filter_0)"><path fill-rule="evenodd" stroke="rgb(37, 139, 254)" stroke-width="2px" stroke-linecap="butt" stroke-linejoin="miter" opacity="0.2" fill="none" d="M73.999,11.499 C108.517,11.499 136.499,39.482 136.499,73.999 C136.499,108.517 108.517,136.499 73.999,136.499 C39.482,136.499 11.499,108.517 11.499,73.999 C11.499,39.482 39.482,11.499 73.999,11.499 Z"></path></g><g filter="url(#Filter_1)"><path fill-rule="evenodd" opacity="0.302" fill="rgb(37, 139, 254)" d="M73.499,27.499 C99.457,27.499 120.499,48.542 120.499,74.499 C120.499,100.456 99.457,121.499 73.499,121.499 C47.542,121.499 26.499,100.456 26.499,74.499 C26.499,48.542 47.542,27.499 73.499,27.499 Z"></path></g><path fill-rule="evenodd" fill="rgb(25, 231, 255)" d="M96.500,74.996 L60.501,96.499 L60.501,53.493 L96.500,74.996 Z"></path></svg>